<svg width="46" height="40" viewBox="0 0 46 40" fill="none" xmlns="http://www.w3.org/2000/svg">
<path d="M46 31.7661V0.762875C45.9986 0.642003 45.9688 0.523138 45.9128 0.415865C45.8568 0.308592 45.7762 0.215913 45.6777 0.145302C45.5791 0.0746911 45.4652 0.0281241 45.3452 0.00935566C45.2252 -0.00941278 45.1024 0.000142789 44.9868 0.037252L22.9655 7.43097L1.01318 0.0601665C0.782916 -0.023853 0.521945 0.0143374 0.322379 0.159462C0.122813 0.304587 2.5587e-06 0.533731 2.5587e-06 0.778151V31.7814C-0.000412817 31.9415 0.0497551 32.0977 0.143415 32.2279C0.237076 32.3581 0.369491 32.4557 0.521945 32.507L22.7198 39.9618H22.7352C22.8119 39.9847 22.8964 40 22.9655 40C23.0499 40 23.1343 39.9847 23.2111 39.9618L45.4781 32.4917C45.6305 32.4405 45.7629 32.3428 45.8566 32.2126C45.9502 32.0824 46.0004 31.9262 46 31.7661ZM44.4649 31.2161L23.733 38.1745V8.79056L44.4649 1.82458V31.2161Z" fill="black"/>
</svg>
