<svg width="147" height="123" viewBox="0 0 147 123" fill="none" xmlns="http://www.w3.org/2000/svg">
<g clip-path="url(#clip0_2113_752)">
<path d="M75.7638 110.998C75.1691 109.116 73.9806 107.469 72.3713 106.299C70.7621 105.128 68.816 104.494 66.8162 104.49C66.5185 104.49 66.2173 104.504 65.915 104.532C63.5148 104.758 61.2947 105.885 59.715 107.681C58.1353 109.477 57.3171 111.804 57.4302 114.179C57.5432 116.554 58.5788 118.795 60.3221 120.437C62.0655 122.079 64.383 122.997 66.794 123C67.0918 123 67.393 122.986 67.6954 122.958C70.0557 122.735 72.2429 121.639 73.8167 119.89C75.3906 118.141 76.2344 115.87 76.1782 113.532C76.1729 113.311 76.1698 113.091 76.1482 112.867C76.0855 112.233 75.9567 111.607 75.7638 110.998Z" fill="#1F1F1F"/>
<path d="M125.611 101.614C124.026 100.332 122.057 99.6024 120.008 99.5363C119.903 99.5328 119.799 99.5216 119.694 99.5216C119.396 99.5216 119.095 99.5355 118.792 99.564C116.319 99.8076 114.043 101.004 112.46 102.894C110.877 104.784 110.115 107.214 110.34 109.655C110.349 109.755 110.37 109.851 110.382 109.95C110.67 112.18 111.772 114.231 113.481 115.718C115.191 117.206 117.391 118.028 119.671 118.032C119.969 118.032 120.27 118.018 120.573 117.99C122.426 117.817 124.184 117.105 125.626 115.944C127.067 114.783 128.125 113.225 128.665 111.469C129.205 109.713 129.203 107.838 128.659 106.083C128.115 104.328 127.054 102.772 125.611 101.614Z" fill="#1F1F1F"/>
<path d="M41.2172 54.2014L39.5844 37.3026C39.2006 33.3801 37.351 29.7384 34.3952 27.0861C31.4394 24.4338 27.5888 22.9604 23.5923 22.9525C23.0846 22.9525 22.571 22.9763 22.0555 23.0247L6.70595 24.4668C4.81142 24.6449 3.05905 25.5351 1.81216 26.9528C0.565271 28.3705 -0.0804974 30.207 0.00873493 32.0816C0.0979673 33.9561 0.915356 35.7249 2.29144 37.0212C3.66752 38.3175 5.49675 39.0419 7.39986 39.0442C7.63481 39.0442 7.87265 39.0332 8.11127 39.0108L23.4608 37.5687C23.5013 37.5649 23.5414 37.563 23.5812 37.563C23.8946 37.5637 24.1964 37.6793 24.4282 37.8873C24.6599 38.0953 24.8048 38.3808 24.8349 38.6884L26.4678 55.5872C26.7658 58.6697 27.3066 61.7247 28.0853 64.7245C28.9985 63.8012 30.132 63.1185 31.382 62.7389L42.0523 59.4904C41.668 57.7453 41.3891 55.9792 41.2172 54.2014Z" fill="#1F1F1F"/>
<path d="M146.725 44.2888L145.879 35.5331C145.704 33.7253 144.853 32.0465 143.491 30.8239C142.129 29.6014 140.355 28.9228 138.513 28.9205C138.278 28.9205 138.041 28.9317 137.801 28.954C136.833 29.0449 135.892 29.3231 135.033 29.7726C134.173 30.2221 133.412 30.8342 132.793 31.5738C132.173 32.3134 131.707 33.1661 131.422 34.0832C131.137 35.0003 131.037 35.9639 131.129 36.9188L131.975 45.6746C132.097 46.9275 132.15 48.1711 132.166 49.408C132.298 60.6791 128.131 71.5879 120.492 79.9734C112.853 88.3588 102.299 93.6092 90.9197 94.6843C89.455 94.8219 88.0024 94.8902 86.5616 94.8891C80.9504 94.8897 75.388 93.8605 70.1586 91.8542C65.3046 89.9891 60.8088 87.3213 56.8645 83.9656L55.6108 87.5175C55.0847 89.0077 54.1079 90.303 52.812 91.2288C51.5162 92.1545 49.9636 92.6661 48.3636 92.6946C46.7637 92.7231 45.1933 92.2671 43.8644 91.3882C42.5354 90.5092 41.5118 89.2495 40.9315 87.779L38.2739 81.0445L33.767 78.7948C39.4426 88.8309 47.923 97.0476 58.199 102.467C60.3056 100.893 62.8153 99.9294 65.4464 99.6839C65.9002 99.6413 66.3611 99.6196 66.8166 99.6196C69.8039 99.6109 72.7187 100.529 75.1476 102.244C77.5765 103.959 79.3968 106.383 80.3509 109.175C82.4104 109.388 84.4797 109.497 86.5506 109.5C88.46 109.5 90.3848 109.409 92.325 109.228C96.8277 108.802 101.267 107.878 105.561 106.473C106.071 103.398 107.6 100.576 109.909 98.4488C112.219 96.3216 115.178 95.0089 118.324 94.716C118.778 94.6733 119.239 94.6517 119.694 94.6517C121.577 94.6513 123.442 95.0163 125.182 95.726C132.75 89.531 138.669 81.6067 142.424 72.6421C146.178 63.6776 147.655 53.9443 146.725 44.2888Z" fill="#1F1F1F"/>
<path d="M126.903 44.5202C124.084 42.6784 120.967 41.3247 117.686 40.5175C125.53 35.6825 129.116 28.4305 128.318 20.1814C127.019 6.72871 114.491 -1.9552 89.6512 0.378519L57.7129 3.37913C53.4173 3.78272 49.4603 5.85244 46.7122 9.13297C43.9642 12.4135 42.6503 16.6361 43.0595 20.8719L46.4921 56.3967C46.5835 56.9491 46.6865 57.4984 46.8011 58.0447L53.546 55.9913C55.1208 55.507 56.8108 55.528 58.3727 56.051C59.9347 56.5741 61.2881 57.5724 62.2381 58.9021C62.9662 59.9015 63.4379 61.06 63.6128 62.2784C63.7877 63.4968 63.6606 64.7389 63.2423 65.8983L58.6256 78.9771C58.8637 79.1998 59.0979 79.4258 59.3421 79.6434C66.7948 86.3135 76.497 90.0118 86.5617 90.0192C87.8513 90.0192 89.1599 89.9577 90.4513 89.8363C101.177 88.8153 111.055 83.6413 117.917 75.4492C124.78 67.257 128.067 56.7155 127.059 46.1365L126.903 44.5202ZM73.3986 23.0361L87.5561 21.706C94.3767 21.0652 97.6865 23.0593 98.1034 27.3741C98.5204 31.689 95.652 34.2636 88.8313 34.9044L74.6739 36.2346L73.3986 23.0361ZM96.2118 68.2763L77.9359 69.9934L76.5869 56.0326L94.8628 54.3156C101.555 53.6869 105.134 55.7842 105.576 60.3528C106.017 64.9215 102.904 67.6476 96.2118 68.2763Z" fill="#0762C8"/>
<path d="M55.872 60.0486C55.5301 60.0493 55.1903 60.1007 54.864 60.2011L32.7 66.9486C32.0612 67.143 31.4959 67.5213 31.0766 68.0347C30.6572 68.5482 30.403 69.1735 30.3466 69.8303C30.2901 70.4872 30.4339 71.1458 30.7596 71.7215C31.0853 72.2973 31.5779 72.764 32.1744 73.0617L40.6719 77.3034C41.4096 77.6717 41.9835 78.2956 42.2834 79.0555L45.0954 86.1814C45.3442 86.8121 45.7833 87.3523 46.3532 87.7293C46.9232 88.1063 47.5967 88.3019 48.2829 88.2896C48.9691 88.2774 49.635 88.058 50.1907 87.6609C50.7465 87.2639 51.1655 86.7084 51.3911 86.0692L59.0226 64.45C59.1979 63.9525 59.2504 63.421 59.1758 62.8995C59.1012 62.378 58.9017 61.8816 58.5937 61.4513C58.2857 61.0211 57.8782 60.6694 57.4049 60.4255C56.9315 60.1815 56.4061 60.0523 55.872 60.0486Z" fill="#0762C8"/>
</g>
<defs>
<clipPath id="clip0_2113_752">
<rect width="147" height="123" fill="white"/>
</clipPath>
</defs>
</svg>
